<?xml version="1.0" encoding="UTF-8"?>
<svg xmlns="http://www.w3.org/2000/svg" xmlns:xlink="http://www.w3.org/1999/xlink" width="30px" height="30px" viewBox="0 0 30 30" version="1.1">
<g id="surface1">
<path style=" stroke:none;fill-rule:nonzero;fill:rgb(98.823529%,98.823529%,99.215686%);fill-opacity:1;" d="M 23.164062 30.355469 C 15.441406 30.355469 7.816406 30.355469 0.191406 30.355469 C 0.191406 20.355469 0.191406 10.355469 0.191406 0.355469 C 10.191406 0.355469 20.191406 0.355469 30.191406 0.355469 C 30.191406 10.355469 30.191406 20.355469 30.191406 30.355469 C 27.878906 30.355469 25.570312 30.355469 23.164062 30.355469 M 13.882812 10.785156 C 12.425781 10.753906 12.179688 11.238281 11.949219 14.613281 C 12.308594 14.671875 12.664062 14.726562 13.082031 14.792969 C 12.652344 16.90625 12.242188 18.828125 11.878906 20.78125 C 11.796875 21.21875 11.78125 21.902344 11.910156 22.234375 C 12.269531 23.175781 13.90625 22.550781 14.144531 21.414062 C 14.507812 19.707031 14.871094 18 15.175781 16.253906 C 15.363281 15.167969 15.601562 14.527344 16.296875 14.640625 C 16.523438 14.679688 16.871094 14.128906 17.011719 13.679688 C 17.210938 13.03125 17.269531 12.230469 17.484375 11.375 C 17.359375 11.175781 17.234375 10.8125 17.105469 10.808594 C 16.085938 10.785156 15.0625 10.832031 13.882812 10.785156 M 4.757812 20.644531 C 4.082031 19.9375 3.40625 19.230469 2.527344 18.308594 C 2.421875 18.566406 2.199219 19.140625 1.960938 19.691406 C 0.882812 22.195312 1.15625 24.691406 2.691406 26.113281 C 3.027344 26.421875 3.386719 26.667969 3.75 26.832031 C 6.28125 27.972656 8.828125 27.707031 11.359375 26.957031 C 13.089844 26.445312 14.792969 25.65625 16.507812 24.992188 C 15.367188 24.628906 14.261719 24.710938 13.160156 24.609375 C 10.570312 24.371094 8.003906 23.84375 5.597656 21.867188 C 5.351562 21.664062 5.175781 21.152344 5.09375 20.757812 C 5.21875 20.617188 5.34375 20.476562 5.46875 20.335938 C 5.425781 20.21875 5.378906 20.101562 5.335938 19.980469 C 5.191406 20.199219 5.042969 20.417969 4.757812 20.644531 M 22.648438 11.117188 C 22.003906 12.792969 21.355469 14.46875 20.550781 16.542969 C 20.632812 14.917969 20.679688 13.898438 20.796875 12.632812 C 20.824219 12.082031 20.851562 11.527344 20.902344 10.453125 C 19.902344 10.828125 19.085938 11.132812 18.191406 11.648438 C 17.265625 14.75 16.328125 17.839844 15.433594 20.972656 C 15.320312 21.378906 15.347656 22.359375 15.484375 22.511719 C 16.152344 23.25 17.277344 22.46875 17.648438 21.140625 C 17.988281 19.90625 18.324219 18.664062 18.660156 17.425781 C 18.710938 17.445312 18.765625 17.46875 18.816406 17.492188 C 18.765625 19.164062 18.710938 20.832031 18.664062 22.433594 C 19.640625 23.132812 20.261719 22.5625 20.722656 20.949219 C 21.039062 19.835938 21.484375 18.859375 21.875 17.820312 C 21.933594 17.878906 21.992188 17.9375 22.050781 17.996094 C 21.894531 19.457031 21.734375 20.914062 21.578125 22.394531 C 22.429688 22.394531 23.132812 22.394531 23.804688 22.394531 C 24.210938 19.078125 24.597656 15.902344 25.101562 12.875 C 25.601562 13.828125 26.101562 14.78125 26.699219 15.910156 C 27.148438 14.789062 27.609375 13.875 27.921875 12.8125 C 28.613281 10.46875 28.308594 8.761719 27.035156 7.550781 C 26.675781 7.207031 26.285156 6.929688 25.894531 6.746094 C 23.308594 5.535156 20.695312 5.898438 18.109375 6.601562 C 16.417969 7.066406 14.753906 7.898438 13.078125 8.566406 C 16.375 8.847656 19.632812 8.957031 22.648438 11.117188 M 11.214844 15.570312 C 11.519531 14.039062 11.820312 12.507812 12.132812 10.9375 C 10.097656 10.46875 8.992188 11.550781 9.308594 13.664062 C 9.488281 13.785156 9.695312 13.921875 10.105469 14.191406 C 9.117188 15.46875 8.277344 16.558594 7.25 17.886719 C 7.792969 18.160156 7.992188 18.261719 8.398438 18.46875 C 7.804688 19.320312 7.351562 19.976562 6.871094 20.667969 C 7.222656 21.105469 7.53125 21.269531 7.574219 21.574219 C 7.867188 23.527344 8.679688 22.25 9.222656 22.5625 C 9.753906 22.863281 9.910156 22.09375 10.058594 21.324219 C 10.417969 19.488281 10.800781 17.664062 11.214844 15.570312 M 10.429688 7.738281 C 10.480469 8.46875 10.394531 9.496094 10.617188 9.871094 C 11.070312 10.632812 12.125 10.023438 12.496094 8.835938 C 12.679688 8.25 12.8125 7.257812 12.667969 6.757812 C 12.535156 6.300781 11.957031 5.976562 11.644531 6.121094 C 11.226562 6.3125 10.878906 7.011719 10.429688 7.738281 Z M 10.429688 7.738281 "/>
<path style=" stroke:none;fill-rule:nonzero;fill:rgb(14.509805%,20.784314%,39.607844%);fill-opacity:1;" d="M 24.984375 12.730469 C 24.597656 15.902344 24.210938 19.078125 23.804688 22.394531 C 23.132812 22.394531 22.429688 22.394531 21.578125 22.394531 C 21.734375 20.914062 21.894531 19.457031 22.050781 17.996094 C 21.992188 17.9375 21.933594 17.878906 21.875 17.820312 C 21.484375 18.859375 21.039062 19.835938 20.722656 20.949219 C 20.261719 22.5625 19.640625 23.132812 18.664062 22.433594 C 18.710938 20.832031 18.765625 19.164062 18.816406 17.492188 C 18.765625 17.46875 18.710938 17.445312 18.660156 17.425781 C 18.324219 18.664062 17.988281 19.90625 17.648438 21.140625 C 17.277344 22.46875 16.152344 23.25 15.484375 22.511719 C 15.347656 22.359375 15.320312 21.378906 15.433594 20.972656 C 16.328125 17.839844 17.265625 14.75 18.3125 11.535156 C 19.144531 11.421875 19.855469 11.421875 20.5 11.421875 C 20.582031 11.9375 20.65625 12.40625 20.730469 12.875 C 20.679688 13.898438 20.632812 14.917969 20.550781 16.542969 C 21.355469 14.46875 22.003906 12.792969 22.796875 11.085938 C 23.625 11.058594 24.308594 11.058594 25.042969 11.058594 C 25.019531 11.710938 25.003906 12.21875 24.984375 12.730469 Z M 24.984375 12.730469 "/>
<path style=" stroke:none;fill-rule:nonzero;fill:rgb(78.039217%,78.039217%,77.64706%);fill-opacity:1;" d="M 25.042969 12.804688 C 25.003906 12.21875 25.019531 11.710938 25.042969 11.058594 C 24.308594 11.058594 23.625 11.058594 22.855469 11.035156 C 19.632812 8.957031 16.375 8.847656 13.078125 8.566406 C 14.753906 7.898438 16.417969 7.066406 18.109375 6.601562 C 20.695312 5.898438 23.308594 5.535156 25.894531 6.746094 C 26.285156 6.929688 26.675781 7.207031 27.035156 7.550781 C 28.308594 8.761719 28.613281 10.46875 27.921875 12.8125 C 27.609375 13.875 27.148438 14.789062 26.699219 15.910156 C 26.101562 14.78125 25.601562 13.828125 25.042969 12.804688 Z M 25.042969 12.804688 "/>
<path style=" stroke:none;fill-rule:nonzero;fill:rgb(78.431374%,78.039217%,77.64706%);fill-opacity:1;" d="M 4.96875 20.78125 C 5.175781 21.152344 5.351562 21.664062 5.597656 21.867188 C 8.003906 23.84375 10.570312 24.371094 13.160156 24.609375 C 14.261719 24.710938 15.367188 24.628906 16.507812 24.992188 C 14.792969 25.65625 13.089844 26.445312 11.359375 26.957031 C 8.828125 27.707031 6.28125 27.972656 3.75 26.832031 C 3.386719 26.667969 3.027344 26.421875 2.691406 26.113281 C 1.15625 24.691406 0.882812 22.195312 1.960938 19.691406 C 2.199219 19.140625 2.421875 18.566406 2.527344 18.308594 C 3.40625 19.230469 4.082031 19.9375 4.84375 20.675781 C 4.933594 20.707031 4.96875 20.78125 4.96875 20.78125 Z M 4.96875 20.78125 "/>
<path style=" stroke:none;fill-rule:nonzero;fill:rgb(14.509805%,20.784314%,39.215687%);fill-opacity:1;" d="M 17.390625 11.496094 C 17.269531 12.230469 17.210938 13.03125 17.011719 13.679688 C 16.871094 14.128906 16.523438 14.679688 16.296875 14.640625 C 15.601562 14.527344 15.363281 15.167969 15.175781 16.253906 C 14.871094 18 14.507812 19.707031 14.144531 21.414062 C 13.90625 22.550781 12.269531 23.175781 11.910156 22.234375 C 11.78125 21.902344 11.796875 21.21875 11.878906 20.78125 C 12.242188 18.828125 12.652344 16.90625 13.082031 14.792969 C 12.664062 14.726562 12.308594 14.671875 11.949219 14.613281 C 12.179688 11.238281 12.425781 10.753906 13.992188 10.945312 C 15.195312 11.238281 16.292969 11.367188 17.390625 11.496094 Z M 17.390625 11.496094 "/>
<path style=" stroke:none;fill-rule:nonzero;fill:rgb(15.686275%,21.960784%,40.392157%);fill-opacity:1;" d="M 11.191406 15.703125 C 10.800781 17.664062 10.417969 19.488281 10.058594 21.324219 C 9.910156 22.09375 9.753906 22.863281 9.222656 22.5625 C 8.679688 22.25 7.867188 23.527344 7.574219 21.574219 C 7.53125 21.269531 7.222656 21.105469 6.871094 20.667969 C 7.351562 19.976562 7.804688 19.320312 8.398438 18.46875 C 7.992188 18.261719 7.792969 18.160156 7.25 17.886719 C 8.277344 16.558594 9.117188 15.46875 10.105469 14.191406 C 9.695312 13.921875 9.488281 13.785156 9.308594 13.664062 C 8.992188 11.550781 10.097656 10.46875 12.132812 10.9375 C 11.820312 12.507812 11.519531 14.039062 11.191406 15.703125 Z M 11.191406 15.703125 "/>
<path style=" stroke:none;fill-rule:nonzero;fill:rgb(15.294118%,21.568628%,40.000001%);fill-opacity:1;" d="M 10.464844 7.617188 C 10.878906 7.011719 11.226562 6.3125 11.644531 6.121094 C 11.957031 5.976562 12.535156 6.300781 12.667969 6.757812 C 12.8125 7.257812 12.679688 8.25 12.496094 8.835938 C 12.125 10.023438 11.070312 10.632812 10.617188 9.871094 C 10.394531 9.496094 10.480469 8.46875 10.464844 7.617188 Z M 10.464844 7.617188 "/>
<path style=" stroke:none;fill-rule:nonzero;fill:rgb(24.313726%,29.803923%,46.27451%);fill-opacity:1;" d="M 17.4375 11.433594 C 16.292969 11.367188 15.195312 11.238281 14.070312 10.980469 C 15.0625 10.832031 16.085938 10.785156 17.105469 10.808594 C 17.234375 10.8125 17.359375 11.175781 17.4375 11.433594 Z M 17.4375 11.433594 "/>
<path style=" stroke:none;fill-rule:nonzero;fill:rgb(25.490198%,30.980393%,47.058824%);fill-opacity:1;" d="M 20.765625 12.753906 C 20.65625 12.40625 20.582031 11.9375 20.5 11.421875 C 19.855469 11.421875 19.144531 11.421875 18.347656 11.429688 C 19.085938 11.132812 19.902344 10.828125 20.902344 10.453125 C 20.851562 11.527344 20.824219 12.082031 20.765625 12.753906 Z M 20.765625 12.753906 "/>
<path style=" stroke:none;fill-rule:nonzero;fill:rgb(78.431374%,78.039217%,77.64706%);fill-opacity:1;" d="M 4.914062 20.671875 C 5.042969 20.417969 5.191406 20.199219 5.335938 19.980469 C 5.378906 20.101562 5.425781 20.21875 5.46875 20.335938 C 5.34375 20.476562 5.21875 20.617188 5.03125 20.769531 C 4.96875 20.78125 4.933594 20.707031 4.914062 20.671875 Z M 4.914062 20.671875 "/>
</g>
</svg>
