<svg version="1.1" id="Layer_1" xmlns="http://www.w3.org/2000/svg" xmlns:xlink="http://www.w3.org/1999/xlink" x="0px" y="0px"
	 width="100%" viewBox="0 0 158 84" enable-background="new 0 0 158 84" xml:space="preserve">
<path fill="#FCFCFD" opacity="1.000000" stroke="none" 
	d="
M122.000000,85.000000 
	C81.333344,85.000000 41.166687,85.000000 1.000021,85.000000 
	C1.000014,57.000015 1.000014,29.000032 1.000007,1.000036 
	C53.666637,1.000024 106.333275,1.000024 158.999939,1.000012 
	C158.999954,28.999964 158.999954,56.999928 158.999969,84.999947 
	C146.833328,85.000000 134.666672,85.000000 122.000000,85.000000 
M73.109947,30.202555 
	C65.442696,30.115177 64.144455,31.468754 62.936798,40.918301 
	C64.819534,41.078091 66.696930,41.237423 68.894760,41.423954 
	C66.632782,47.336758 64.472885,52.715893 62.562103,58.182117 
	C62.132988,59.409698 62.041668,61.328171 62.717148,62.260025 
	C64.627815,64.895874 73.236565,63.141068 74.501953,59.960823 
	C76.404160,55.180096 78.329498,50.396896 79.926247,45.510586 
	C80.920403,42.468311 82.169922,40.677357 85.821350,40.993965 
	C87.027245,41.098530 88.851860,39.559879 89.586174,38.301441 
	C90.643089,36.490173 90.962067,34.248314 92.078461,31.848263 
	C91.417877,31.296225 90.762848,30.274302 90.095833,30.266415 
	C84.715881,30.202791 79.333687,30.329954 73.109947,30.202555 
M25.049004,57.804672 
	C21.493279,55.822521 17.937553,53.840370 13.307678,51.259430 
	C12.756784,51.980896 11.589579,53.594879 10.335032,55.137848 
	C4.640280,62.141838 6.089919,69.141327 14.169180,73.112495 
	C15.938012,73.981911 17.842775,74.668526 19.759563,75.128090 
	C33.080830,78.322060 46.500629,77.577393 59.834633,75.480850 
	C68.935440,74.049911 77.913673,71.839386 86.946709,69.977417 
	C80.942444,68.956734 75.108566,69.192955 69.300079,68.909348 
	C55.675961,68.244148 42.163109,66.763092 29.481344,61.223766 
	C28.183916,60.657051 27.264950,59.223892 26.827703,58.118946 
	C27.483385,57.727810 28.139065,57.336678 28.794744,56.945541 
	C28.566010,56.613373 28.337275,56.281204 28.108538,55.949032 
	C27.338024,56.557274 26.567509,57.165516 25.049004,57.804672 
M119.288055,31.125498 
	C115.877762,35.817322 112.467461,40.509148 108.239662,46.325672 
	C108.657372,41.772861 108.919899,38.911469 109.530647,35.370399 
	C109.670639,33.826099 109.810631,32.281799 110.083733,29.269112 
	C104.825027,30.316635 100.511696,31.175842 95.804031,32.616108 
	C90.935387,41.302200 85.989395,49.946926 81.293297,58.725323 
	C80.687790,59.857197 80.834000,62.601639 81.558556,63.029320 
	C85.073654,65.104126 90.997940,62.911846 92.940903,59.191711 
	C94.745285,55.736893 96.499908,52.256084 98.276443,48.786720 
	C98.551247,48.851383 98.826050,48.916046 99.100853,48.980709 
	C98.827667,53.654247 98.554474,58.327782 98.292496,62.809475 
	C103.433678,64.773407 106.710663,63.178387 109.139938,58.652397 
	C110.807396,55.545742 113.157631,52.805561 115.202667,49.901573 
	C115.515457,50.063553 115.828247,50.225533 116.141037,50.387512 
	C115.309303,54.475498 114.477562,58.563488 113.636002,62.699783 
	C118.130798,62.699783 121.841644,62.699783 125.379669,62.699783 
	C127.509750,53.413380 129.547668,44.528782 132.206985,36.053795 
	C134.842407,38.718742 137.477814,41.383686 140.610886,44.551872 
	C142.985031,41.404366 145.401520,38.854450 147.051636,35.879452 
	C150.695755,29.309425 149.086716,24.529982 142.393311,21.144350 
	C140.490555,20.181908 138.441086,19.406597 136.372757,18.891064 
	C122.750092,15.495598 109.005463,16.510912 95.370102,18.488457 
	C86.460495,19.780621 77.702805,22.120293 68.877068,23.990757 
	C86.235291,24.770023 103.396400,25.075489 119.288055,31.125498 
M59.064312,43.601402 
	C60.662827,39.313137 62.261341,35.024872 63.903446,30.619663 
	C53.173264,29.309071 47.352856,32.337368 49.015015,38.258442 
	C49.976288,38.596233 51.069462,38.980370 53.223103,39.737156 
	C48.022408,43.315109 43.586590,46.366844 38.189053,50.080219 
	C41.038410,50.851452 42.086426,51.135117 44.221699,51.713070 
	C41.113831,54.097221 38.716850,55.936028 36.190918,57.873756 
	C38.047333,59.096127 39.654514,59.559830 39.891884,60.407238 
	C41.424351,65.878082 45.707806,62.301849 48.582741,63.174419 
	C51.362686,64.018173 52.192394,61.863682 52.979160,59.711193 
	C54.860809,54.563263 56.874947,49.463757 59.064312,43.601402 
M54.920776,21.666611 
	C55.200340,23.715202 54.741199,26.588354 55.914425,27.639425 
	C58.300575,29.777124 63.855717,28.061760 65.812157,24.744467 
	C66.781319,23.101175 67.474686,20.319916 66.709427,18.917578 
	C66.016121,17.647095 62.973434,16.734421 61.326008,17.136503 
	C59.133724,17.671568 57.289654,19.633347 54.920776,21.666611 
z"/>
<path fill="#253565" opacity="1.000000" stroke="none" 
	d="
M131.585602,35.644184 
	C129.547668,44.528782 127.509750,53.413380 125.379669,62.699783 
	C121.841644,62.699783 118.130798,62.699783 113.636002,62.699783 
	C114.477562,58.563488 115.309303,54.475498 116.141037,50.387512 
	C115.828247,50.225533 115.515457,50.063553 115.202667,49.901573 
	C113.157631,52.805561 110.807396,55.545742 109.139938,58.652397 
	C106.710663,63.178387 103.433678,64.773407 98.292496,62.809475 
	C98.554474,58.327782 98.827667,53.654247 99.100853,48.980709 
	C98.826050,48.916046 98.551247,48.851383 98.276443,48.786720 
	C96.499908,52.256084 94.745285,55.736893 92.940903,59.191711 
	C90.997940,62.911846 85.073654,65.104126 81.558556,63.029320 
	C80.834000,62.601639 80.687790,59.857197 81.293297,58.725323 
	C85.989395,49.946926 90.935387,41.302200 96.440926,32.298908 
	C100.825813,31.981709 104.573807,31.981709 107.958015,31.981709 
	C108.393799,33.429688 108.788116,34.739880 109.182434,36.050072 
	C108.919899,38.911469 108.657372,41.772861 108.239662,46.325672 
	C112.467461,40.509148 115.877762,35.817322 120.060913,31.042519 
	C124.426323,30.959539 128.018875,30.959539 131.891373,30.959539 
	C131.771790,32.791695 131.678696,34.217941 131.585602,35.644184 
z"/>
<path fill="#C7C7C6" opacity="1.000000" stroke="none" 
	d="
M131.896301,35.848991 
	C131.678696,34.217941 131.771790,32.791695 131.891373,30.959539 
	C128.018875,30.959539 124.426323,30.959539 120.368690,30.894981 
	C103.396400,25.075489 86.235291,24.770023 68.877068,23.990757 
	C77.702805,22.120293 86.460495,19.780621 95.370102,18.488457 
	C109.005463,16.510912 122.750092,15.495598 136.372757,18.891064 
	C138.441086,19.406597 140.490555,20.181908 142.393311,21.144350 
	C149.086716,24.529982 150.695755,29.309425 147.051636,35.879452 
	C145.401520,38.854450 142.985031,41.404366 140.610886,44.551872 
	C137.477814,41.383686 134.842407,38.718742 131.896301,35.848991 
z"/>
<path fill="#C8C7C6" opacity="1.000000" stroke="none" 
	d="
M26.170364,58.192795 
	C27.264950,59.223892 28.183916,60.657051 29.481344,61.223766 
	C42.163109,66.763092 55.675961,68.244148 69.300079,68.909348 
	C75.108566,69.192955 80.942444,68.956734 86.946709,69.977417 
	C77.913673,71.839386 68.935440,74.049911 59.834633,75.480850 
	C46.500629,77.577393 33.080830,78.322060 19.759563,75.128090 
	C17.842775,74.668526 15.938012,73.981911 14.169180,73.112495 
	C6.089919,69.141327 4.640280,62.141838 10.335032,55.137848 
	C11.589579,53.594879 12.756784,51.980896 13.307678,51.259430 
	C17.937553,53.840370 21.493279,55.822521 25.516941,57.893440 
	C25.984877,57.982212 26.170364,58.192795 26.170364,58.192795 
z"/>
<path fill="#253564" opacity="1.000000" stroke="none" 
	d="
M91.595993,32.190231 
	C90.962067,34.248314 90.643089,36.490173 89.586174,38.301441 
	C88.851860,39.559879 87.027245,41.098530 85.821350,40.993965 
	C82.169922,40.677357 80.920403,42.468311 79.926247,45.510586 
	C78.329498,50.396896 76.404160,55.180096 74.501953,59.960823 
	C73.236565,63.141068 64.627815,64.895874 62.717148,62.260025 
	C62.041668,61.328171 62.132988,59.409698 62.562103,58.182117 
	C64.472885,52.715893 66.632782,47.336758 68.894760,41.423954 
	C66.696930,41.237423 64.819534,41.078091 62.936798,40.918301 
	C64.144455,31.468754 65.442696,30.115177 73.682449,30.651909 
	C80.035301,31.464251 85.815651,31.827240 91.595993,32.190231 
z"/>
<path fill="#283867" opacity="1.000000" stroke="none" 
	d="
M58.949951,43.973053 
	C56.874947,49.463757 54.860809,54.563263 52.979160,59.711193 
	C52.192394,61.863682 51.362686,64.018173 48.582741,63.174419 
	C45.707806,62.301849 41.424351,65.878082 39.891884,60.407238 
	C39.654514,59.559830 38.047333,59.096127 36.190918,57.873756 
	C38.716850,55.936028 41.113831,54.097221 44.221699,51.713070 
	C42.086426,51.135117 41.038410,50.851452 38.189053,50.080219 
	C43.586590,46.366844 48.022408,43.315109 53.223103,39.737156 
	C51.069462,38.980370 49.976288,38.596233 49.015015,38.258442 
	C47.352856,32.337368 53.173264,29.309071 63.903446,30.619663 
	C62.261341,35.024872 60.662827,39.313137 58.949951,43.973053 
z"/>
<path fill="#273766" opacity="1.000000" stroke="none" 
	d="
M55.108383,21.324413 
	C57.289654,19.633347 59.133724,17.671568 61.326008,17.136503 
	C62.973434,16.734421 66.016121,17.647095 66.709427,18.917578 
	C67.474686,20.319916 66.781319,23.101175 65.812157,24.744467 
	C63.855717,28.061760 58.300575,29.777124 55.914425,27.639425 
	C54.741199,26.588354 55.200340,23.715202 55.108383,21.324413 
z"/>
<path fill="#3E4C76" opacity="1.000000" stroke="none" 
	d="
M91.837227,32.019249 
	C85.815651,31.827240 80.035301,31.464251 74.103561,30.750061 
	C79.333687,30.329954 84.715881,30.202791 90.095833,30.266415 
	C90.762848,30.274302 91.417877,31.296225 91.837227,32.019249 
z"/>
<path fill="#414F78" opacity="1.000000" stroke="none" 
	d="
M109.356537,35.710236 
	C108.788116,34.739880 108.393799,33.429688 107.958015,31.981709 
	C104.573807,31.981709 100.825813,31.981709 96.638092,32.008377 
	C100.511696,31.175842 104.825027,30.316635 110.083733,29.269112 
	C109.810631,32.281799 109.670639,33.826099 109.356537,35.710236 
z"/>
<path fill="#C8C7C6" opacity="1.000000" stroke="none" 
	d="
M25.890934,57.877983 
	C26.567509,57.165516 27.338024,56.557274 28.108538,55.949032 
	C28.337275,56.281204 28.566010,56.613373 28.794744,56.945541 
	C28.139065,57.336678 27.483385,57.727810 26.499035,58.155869 
	C26.170364,58.192795 25.984877,57.982212 25.890934,57.877983 
z"/>
</svg>